<?xml version="1.0" standalone="no"?>
<!DOCTYPE svg PUBLIC "-//W3C//DTD SVG 20010904//EN"
 "http://www.w3.org/TR/2001/REC-SVG-20010904/DTD/svg10.dtd">
<svg version="1.0" xmlns="http://www.w3.org/2000/svg"
 width="1024.000000pt" height="1024.000000pt" viewBox="0 0 1024.000000 1024.000000"
 preserveAspectRatio="xMidYMid meet">

<g transform="translate(0.000000,1024.000000) scale(0.100000,-0.100000)"
fill="#000000" stroke="none">
<path d="M0 5120 l0 -5120 5120 0 5120 0 0 5120 0 5120 -5120 0 -5120 0 0
-5120z m3796 2662 c22 -11 53 -35 71 -54 58 -60 63 -90 63 -392 0 -151 -5
-287 -10 -307 -15 -52 -49 -99 -98 -133 -54 -38 -149 -48 -217 -21 -53 20
-120 92 -136 144 -6 23 -9 145 -7 338 l3 301 30 43 c36 50 67 75 121 95 50 18
129 12 180 -14z m2816 14 c65 -19 113 -59 143 -119 l25 -51 0 -290 c0 -285 -1
-292 -24 -341 -43 -92 -112 -135 -213 -135 -102 1 -180 55 -217 152 -15 38
-17 82 -14 338 l3 295 27 45 c30 52 75 88 132 106 54 17 83 17 138 0z m-3270
-578 c3 -172 6 -199 26 -250 48 -119 170 -211 297 -224 115 -11 249 54 315
153 56 86 70 154 70 344 l0 169 1069 0 1069 0 4 -192 c3 -192 3 -193 34 -259
43 -89 93 -142 172 -181 59 -29 76 -33 147 -33 65 1 91 6 135 26 69 32 119 76
158 137 52 81 62 136 62 330 l0 174 218 -5 c245 -5 289 -14 413 -78 147 -76
258 -206 314 -369 l30 -85 3 -1925 c3 -2169 8 -2010 -74 -2179 -99 -202 -285
-330 -524 -362 -48 -6 -839 -9 -2210 -7 -2398 3 -2167 -4 -2340 80 -115 56
-237 177 -293 290 -78 161 -72 -18 -72 2143 0 1808 1 1934 18 1995 54 200 213
382 395 450 104 40 169 48 369 49 l191 1 4 -192z"/>
<path d="M2834 6326 c-38 -17 -71 -57 -84 -105 -8 -25 -10 -539 -8 -1626 l3
-1590 25 -50 c31 -64 91 -124 155 -155 l50 -25 2145 0 2145 0 46 21 c69 32
128 91 161 159 l28 60 0 1597 c0 1796 6 1656 -75 1703 l-42 25 -2259 0 c-1868
-1 -2264 -3 -2290 -14z m3754 -284 c7 -5 28 -68 47 -140 60 -233 70 -243 282
-292 70 -16 130 -35 134 -42 15 -22 10 -57 -8 -67 -10 -5 -71 -24 -137 -42
-134 -36 -199 -74 -228 -130 -10 -20 -32 -89 -48 -154 -34 -134 -33 -131 -60
-138 -32 -8 -46 15 -70 120 -57 248 -85 278 -305 319 -99 18 -135 35 -135 63
0 29 19 39 136 71 166 46 212 67 239 109 13 20 40 96 59 169 41 158 54 179 94
154z m-1006 -349 c67 -21 156 -89 201 -154 29 -43 40 -71 47 -120 11 -78 28
-94 107 -103 128 -15 250 -108 293 -223 31 -84 35 -154 13 -253 -23 -100 -17
-130 32 -160 19 -12 56 -45 84 -75 67 -74 85 -129 79 -250 -3 -79 -8 -101 -36
-158 -32 -64 -62 -96 -132 -141 -33 -21 -35 -25 -34 -71 1 -28 5 -81 9 -118
10 -86 -13 -175 -65 -255 -55 -86 -139 -133 -282 -157 -42 -6 -73 -39 -83 -86
-11 -48 -107 -144 -183 -181 -58 -29 -76 -33 -147 -33 -99 0 -159 26 -205 88
-56 76 -60 108 -60 459 l0 318 163 0 162 0 20 -37 c75 -138 281 -131 346 12
68 148 -71 308 -229 264 -33 -9 -61 -27 -94 -61 l-47 -48 -160 0 -161 0 0 300
0 300 179 0 c168 0 180 -1 186 -19 8 -28 54 -70 99 -93 83 -42 203 -3 246 82
24 47 27 138 6 179 -22 42 -81 89 -127 101 -79 22 -157 -8 -206 -79 l-28 -40
-178 -1 -178 0 3 328 3 327 30 55 c63 114 178 150 327 103z m-794 4 c46 -17
91 -64 118 -122 l24 -50 0 -1075 c0 -701 -4 -1088 -10 -1112 -19 -66 -70 -130
-130 -161 -50 -26 -62 -29 -135 -25 -147 8 -270 92 -316 218 -12 33 -27 64
-34 70 -7 6 -44 13 -81 16 -90 7 -143 34 -214 111 -95 101 -117 193 -88 364
l12 71 -36 32 c-19 17 -53 45 -74 62 -77 61 -120 201 -104 333 15 113 50 172
149 250 59 47 66 69 45 160 -33 152 -6 273 83 372 56 61 113 90 220 109 53 10
99 23 103 31 5 7 11 33 15 58 19 132 118 246 248 286 52 17 161 17 205 2z
m1016 -828 c49 -39 22 -129 -40 -129 -37 0 -74 37 -74 75 0 36 36 75 70 75 10
0 29 -9 44 -21z m-19 -744 c45 -44 22 -109 -42 -121 -26 -5 -37 -1 -57 19 -15
15 -26 38 -26 52 0 33 42 75 75 75 14 0 37 -11 50 -25z"/>
<path d="M4545 5394 c-64 -33 -114 -105 -115 -164 0 -73 44 -146 107 -178 l34
-18 0 -157 1 -157 64 0 64 0 0 158 1 157 39 27 c116 80 103 271 -23 328 -51
24 -131 26 -172 4z m135 -124 c45 -45 11 -120 -53 -120 -42 0 -70 29 -69 71 0
17 8 40 18 50 23 25 78 25 104 -1z"/>
<path d="M4115 4611 c-63 -39 -105 -109 -105 -173 1 -68 60 -153 123 -177 36
-14 108 -14 144 0 37 14 89 64 104 101 l12 30 78 -4 c124 -5 119 5 119 -273
l0 -233 -30 -12 c-42 -17 -87 -72 -100 -122 -42 -155 111 -294 258 -233 151
64 163 277 20 351 l-28 15 0 240 c0 216 -2 243 -19 277 -41 81 -103 112 -219
112 l-79 0 -24 37 c-35 55 -91 83 -164 83 -41 0 -69 -6 -90 -19z m148 -123
c37 -44 4 -118 -55 -118 -34 0 -78 40 -78 70 0 12 14 35 30 52 25 24 36 29 58
24 15 -4 35 -16 45 -28z m432 -743 c32 -31 32 -69 -1 -102 -20 -20 -31 -24
-57 -19 -38 7 -67 39 -67 73 0 32 42 73 75 73 14 0 37 -11 50 -25z"/>
</g>
</svg>
